<?xml version="1.0" encoding="utf-8"?>
<!-- Generator: Adobe Illustrator 23.0.3, SVG Export Plug-In . SVG Version: 6.00 Build 0)  -->
<svg version="1.1" id="Layer_1" xmlns="http://www.w3.org/2000/svg" xmlns:xlink="http://www.w3.org/1999/xlink" x="0px" y="0px"
	 viewBox="0 0 450 450" enable-background="new 0 0 450 450" xml:space="preserve">
<g>
	<g>
		<g>
			<defs>
				<path id="SVGID_1_" d="M350.6,320.9c-2.6,1.6,0.8-8.6-1.3-8.3c-0.1,0-0.2,0-0.4,0c1.6-0.2,3-1.5,3.6-3.6l6.8-0.9
					C356.5,317.4,352.9,319.8,350.6,320.9z"/>
			</defs>
			<use xlink:href="#SVGID_1_"  overflow="visible" fill="#85A9FF"/>
			<clipPath id="SVGID_2_">
				<use xlink:href="#SVGID_1_"  overflow="visible"/>
			</clipPath>
			<g clip-path="url(#SVGID_2_)" enable-background="new    ">
				<path fill="#85A9FF" d="M352.6,309l6.8-0.9c0,0,0,0,0,0L352.6,309C352.5,309,352.5,309,352.6,309z"/>
				<path fill="#85A9FF" d="M352.5,309l6.8-0.9c0,0.1,0,0.2-0.1,0.3l-6.8,0.9C352.5,309.2,352.5,309.1,352.5,309z"/>
				<path fill="#85A9FF" d="M352.5,309.3l6.8-0.9c0,0.1-0.1,0.2-0.1,0.3l-6.8,0.9C352.4,309.5,352.4,309.4,352.5,309.3z"/>
				<path fill="#85A9FF" d="M352.4,309.5l6.8-0.9c0,0.1-0.1,0.2-0.1,0.2l-6.8,0.9C352.3,309.7,352.3,309.6,352.4,309.5z"/>
				<path fill="#85A9FF" d="M352.3,309.8l6.8-0.9c0,0.1-0.1,0.2-0.1,0.3l-6.8,0.9C352.2,310,352.2,309.9,352.3,309.8z"/>
				<path fill="#85A9FF" d="M352.2,310l6.8-0.9c0,0.1-0.1,0.2-0.1,0.3l-6.8,0.9C352.1,310.2,352.1,310.1,352.2,310z"/>
				<path fill="#85A9FF" d="M352,310.3l6.8-0.9c-0.1,0.1-0.1,0.2-0.2,0.3l-6.8,0.9C351.9,310.5,352,310.4,352,310.3z"/>
				<path fill="#85A9FF" d="M351.9,310.6l6.8-0.9c-0.1,0.1-0.1,0.2-0.2,0.3l-6.8,0.9C351.8,310.8,351.8,310.7,351.9,310.6z"/>
				<path fill="#85A9FF" d="M351.7,310.9l6.8-0.9c-0.1,0.1-0.1,0.2-0.2,0.3l-6.8,0.9C351.5,311.1,351.6,311,351.7,310.9z"/>
				<path fill="#85A9FF" d="M351.5,311.2l6.8-0.9c-0.1,0.1-0.2,0.2-0.3,0.3l-6.8,0.9C351.3,311.4,351.4,311.3,351.5,311.2z"/>
			</g>
		</g>
		<path fill="#85A9FF" d="M224.2,56.3c-0.1,0-0.1-0.1-0.2-0.1c-0.1,0-0.1-0.1-0.2-0.1c-0.1,0-0.1-0.1-0.2-0.1
			c-0.1,0-0.1-0.1-0.2-0.1c-0.1,0-0.1,0-0.2-0.1c-0.1,0-0.1,0-0.2,0c0,0,0,0,0,0c-0.1,0-0.2,0-0.2,0c-0.1,0-0.2,0-0.3,0
			c-0.1,0-0.2,0-0.3,0c-0.1,0-0.2,0-0.3,0c0,0,0,0,0,0c-1.7,0.2-3.4,0.5-5.1,0.7l-1.6,0.2c0,0,0,0,0,0c0.4-0.1,0.8,0,1.2,0
			c0,0,0,0,0,0c0.4,0.1,0.8,0.2,1.2,0.5l172.7,99.7l6.8-0.9L224.2,56.3z"/>
		<path fill="#85A9FF" d="M400,161.8C400,161.8,400,161.8,400,161.8c0-0.1,0-0.1,0-0.1c0-0.1,0-0.2,0-0.3c0-0.1,0-0.3,0-0.4
			c0-0.1,0-0.2-0.1-0.3c0,0,0-0.1,0-0.1c0,0,0-0.1,0-0.1c0-0.1-0.1-0.2-0.1-0.3c0-0.3-0.1-0.5-0.2-0.8c0-0.1-0.1-0.3-0.2-0.4
			c-0.1-0.2-0.2-0.5-0.3-0.7c0,0,0-0.1-0.1-0.1c-0.1-0.2-0.2-0.3-0.3-0.5c0-0.1-0.1-0.1-0.1-0.2c0,0,0,0-0.1-0.1c0,0,0-0.1-0.1-0.1
			c-0.1-0.1-0.2-0.2-0.2-0.3c-0.1-0.1-0.2-0.2-0.2-0.2c-0.1-0.1-0.1-0.1-0.2-0.2c0,0,0,0,0,0c-0.1-0.1-0.1-0.1-0.2-0.2
			c-0.1,0-0.1-0.1-0.2-0.2c-0.1-0.1-0.1-0.1-0.2-0.1c-0.1,0-0.1-0.1-0.2-0.1c0,0,0,0,0,0l-6.8,0.9c0,0,0,0,0,0
			c0.3,0.2,0.6,0.4,0.8,0.6c0,0,0,0,0,0c0.3,0.2,0.5,0.5,0.7,0.8c0,0,0,0,0,0c0.2,0.2,0.3,0.5,0.5,0.8c0.1,0.2,0.2,0.4,0.3,0.7
			c0.1,0.1,0.1,0.3,0.2,0.4c0.1,0.3,0.2,0.6,0.2,0.9c0,0.1,0.1,0.2,0.1,0.3c0,0.1,0,0.1,0,0.2c0.1,0.3,0.1,0.7,0.1,1.1
			c0,0,0,0,0,0.1c0,0.4,0,0.8,0,1.2c0,0,0,0,0,0c0,0.4-0.1,0.8-0.2,1.2L352.6,309l6.8-0.9l40.4-143.9c0-0.1,0-0.2,0.1-0.3
			c0-0.1,0-0.2,0.1-0.3c0-0.1,0-0.2,0-0.3c0-0.1,0-0.2,0-0.3c0-0.1,0-0.2,0-0.3c0-0.1,0-0.2,0-0.3c0-0.1,0-0.2,0-0.3
			C400,162.1,400,162,400,161.8z"/>
		<g>
			<path fill="#C3DFF4" d="M390.1,156.9c2.4,1.4,3.7,5.1,2.8,8.2L352.6,309c-0.9,3.1-3.5,4.5-6,3.1L160,209.2c0,0,8.2-1.2,10.8-4.2
				l40.7-144.7c0.9-3.1,3.5-4.5,6-3.1L390.1,156.9z"/>
		</g>
		<g>
			<path fill="#E3F1FE" d="M382.6,160.7c2.3,1.3,3.5,4.8,2.7,7.7l-38.2,136.3c-0.8,2.9-3.3,4.2-5.6,2.9l-163.5-94.4
				c-2.3-1.3-3.5-4.8-2.7-7.7l38.2-136.3c0.8-2.9,3.4-4.2,5.6-2.9L382.6,160.7z"/>
		</g>
		<g>
			<path fill="#85A9FF" d="M372.4,161.9c2.1,1.2,3.2,4.4,2.4,7.1l-35,124.9c-0.7,2.7-3.1,3.9-5.2,2.7L184.8,210
				c-2.1-1.2-3.2-4.4-2.4-7.1l35-124.9c0.8-2.7,3.1-3.9,5.2-2.7L372.4,161.9z"/>
		</g>
		<g>
			<path fill="#608EEA" d="M372.4,161.9c2.1,1.2,3.2,4.4,2.4,7.1l-35,124.9c-0.7,2.7-3.1,3.9-5.2,2.7L184.8,210
				c-2.1-1.2-3.2-4.4-2.4-7.1l35-124.9c0.8-2.7,3.1-3.9,5.2-2.7L372.4,161.9z"/>
		</g>
		<path fill="#85A9FF" d="M374.9,169l-35,124.9c-0.7,2.7-3.1,3.9-5.2,2.7L184.8,210c-0.9-0.5-1.6-1.4-2-2.4c0-0.4,0.1-0.8,0.2-1.2
			l35.4-126.2c0.8-2.7,3.1-3.9,5.2-2.7l151,87.2C375.2,166.1,375.3,167.6,374.9,169z"/>
		<g>
			<defs>
				<path id="SVGID_3_" d="M352,310.1l0,8.6c0,0.9-0.6,1.9-1.8,2.5l0-8.6C351.4,311.9,352,311,352,310.1z"/>
			</defs>
			<use xlink:href="#SVGID_3_"  overflow="visible" fill="#85A9FF"/>
			<clipPath id="SVGID_4_">
				<use xlink:href="#SVGID_3_"  overflow="visible"/>
			</clipPath>
			<g clip-path="url(#SVGID_4_)" enable-background="new    ">
				<path fill="#85A9FF" d="M352,310.1l0,8.6c0,0,0,0,0,0.1L352,310.1C352,310.1,352,310.1,352,310.1z"/>
				<path fill="#85A9FF" d="M352,310.1l0,8.6c0,0.1,0,0.2,0,0.4l0-8.6C352,310.4,352,310.2,352,310.1z"/>
				<path fill="#85A9FF" d="M352,310.5l0,8.6c0,0.1-0.1,0.2-0.1,0.4l0-8.6C351.9,310.7,351.9,310.6,352,310.5z"/>
				<path fill="#85A9FF" d="M351.8,310.8l0,8.6c0,0.1-0.1,0.2-0.2,0.4l0-8.6C351.7,311.1,351.8,311,351.8,310.8z"/>
				<path fill="#85A9FF" d="M351.7,311.2l0,8.6c-0.1,0.1-0.2,0.3-0.3,0.4l0-8.6C351.5,311.5,351.6,311.3,351.7,311.2z"/>
				<path fill="#85A9FF" d="M351.4,311.6l0,8.6c-0.1,0.1-0.2,0.3-0.4,0.4l0-8.6C351.2,311.9,351.3,311.7,351.4,311.6z"/>
				<path fill="#85A9FF" d="M351,312l0,8.6c-0.2,0.2-0.5,0.4-0.8,0.6l0-8.6C350.5,312.4,350.8,312.2,351,312z"/>
				<path fill="#85A9FF" d="M350.2,312.6l0,8.6c0,0,0,0-0.1,0L350.2,312.6C350.2,312.6,350.2,312.6,350.2,312.6z"/>
			</g>
		</g>
		<path fill="#85A9FF" d="M236.5,378.7c-0.4,0.2-0.8,0.4-1.2,0.6c-0.2,0.1-0.3,0.1-0.5,0.1c-0.2,0.1-0.4,0.1-0.6,0.2
			c-0.2,0.1-0.5,0.1-0.7,0.1c-0.1,0-0.1,0-0.2,0c-0.4,0-0.7,0.1-1.1,0.1c0,0-0.1,0-0.2,0c-0.4,0-0.7,0-1.1-0.1c0,0-0.1,0-0.1,0
			c-0.4,0-0.7-0.1-1-0.2c-0.1,0-0.1-0.1-0.2-0.1c-0.3-0.1-0.6-0.2-0.9-0.3c-0.1,0-0.1,0-0.2-0.1c-0.3-0.1-0.6-0.3-1-0.5L51.9,277.3
			l0,8.6l175.7,101.5c0.3,0.2,0.6,0.3,0.9,0.4c0,0,0,0,0.1,0c0.1,0,0.1,0,0.2,0.1c0.2,0.1,0.4,0.1,0.5,0.2c0.1,0,0.2,0,0.3,0.1
			c0.1,0,0.2,0,0.2,0.1c0,0,0.1,0,0.1,0c0.2,0.1,0.4,0.1,0.6,0.1c0.1,0,0.2,0,0.2,0c0.1,0,0.1,0,0.2,0c0.1,0,0.1,0,0.2,0
			c0.2,0,0.4,0,0.6,0c0.1,0,0.2,0,0.2,0c0.1,0,0.1,0,0.2,0c0.1,0,0.2,0,0.3,0c0.2,0,0.5,0,0.7,0c0,0,0,0,0.1,0c0.1,0,0.1,0,0.2,0
			c0.2,0,0.3-0.1,0.5-0.1c0.1,0,0.1,0,0.2-0.1c0.2,0,0.5-0.1,0.7-0.2c0.1,0,0.2,0,0.3-0.1c0,0,0.1,0,0.1-0.1
			c0.4-0.2,0.9-0.3,1.2-0.6l113.7-66.1l0-8.6L236.5,378.7z"/>
		<g>
			<path fill="#D7E9FF" d="M350.1,307.5c2.5,1.4,2.5,3.7,0,5.2l-113.7,66.1c-2.4,1.4-6.4,1.4-8.9,0L51.9,277.3
				c-2.5-1.4-2.5-3.7,0-5.2L165.5,206c2.5-1.4,6.4-1.4,8.9,0L350.1,307.5z"/>
		</g>
		<path fill="#608EEA" d="M318.3,123.7c-0.5,0.9-1.6,1.2-2.5,0.7L288,108c-0.9-0.5-1.2-1.6-0.7-2.5c0.5-0.9,1.6-1.2,2.5-0.7
			l27.9,16.4C318.6,121.7,318.8,122.8,318.3,123.7z"/>
		<path fill="#85A9FF" d="M289.8,104.8l27.9,16.4c0.8,0.5,1.1,1.5,0.7,2.4c-0.5,0.1-0.9,0.1-1.4-0.2l-27.9-16.4
			c-0.8-0.5-1.1-1.5-0.7-2.4C288.9,104.5,289.4,104.5,289.8,104.8z"/>
		<g>
			<g>
				<polygon fill="#6591EA" points="141.5,249.8 131.1,255.8 116.9,247.6 127.3,241.6 				"/>
			</g>
			<g>
				<polygon fill="#6591EA" points="168.8,234 158.4,240 144.2,231.8 154.6,225.7 				"/>
			</g>
			<g>
				<polygon fill="#6591EA" points="155.2,241.9 144.8,247.9 130.5,239.7 140.9,233.7 				"/>
			</g>
			<g>
				<polygon fill="#6591EA" points="187.8,234 182.1,237.3 158.4,223.5 164,220.2 				"/>
			</g>
			<g>
				<polygon fill="#6591EA" points="215.3,249.8 209.6,253.1 185.8,239.4 191.5,236.1 				"/>
			</g>
			<g>
				<polygon fill="#6591EA" points="297.6,297.4 292,300.7 268.2,287 273.9,283.6 				"/>
			</g>
			<g enable-background="new    ">
				<g>
					<polygon fill="#6591EA" points="187.1,244.5 176.7,250.6 162.5,242.4 172.9,236.3 					"/>
				</g>
				<g>
					<polygon fill="#6591EA" points="173.5,252.5 163.1,258.5 148.9,250.3 159.2,244.2 					"/>
				</g>
				<g>
					<polygon fill="#6591EA" points="205.4,255.1 195,261.1 180.8,252.9 191.2,246.9 					"/>
				</g>
				<g>
					<polygon fill="#6591EA" points="159.8,260.4 149.5,266.4 135.2,258.2 145.6,252.2 					"/>
				</g>
				<g>
					<polygon fill="#6591EA" points="242.7,265.7 237,269 213.3,255.2 219,251.9 					"/>
				</g>
				<g>
					<polygon fill="#6591EA" points="191.8,263 181.4,269.1 167.2,260.9 177.5,254.8 					"/>
				</g>
				<g>
					<polygon fill="#6591EA" points="223.7,265.7 213.3,271.7 199.1,263.5 209.5,257.5 					"/>
				</g>
				<g>
					<polygon fill="#6591EA" points="147.3,267.7 137.5,273.4 123.2,265.2 133.1,259.4 					"/>
				</g>
				<g>
					<polygon fill="#6591EA" points="178.1,271 167.8,277 153.5,268.8 163.9,262.7 					"/>
				</g>
				<g>
					<polygon fill="#6591EA" points="210.1,273.6 199.7,279.6 185.5,271.4 195.8,265.4 					"/>
				</g>
				<g>
					<polygon fill="#6591EA" points="242,276.2 231.6,282.3 217.4,274.1 227.8,268 					"/>
				</g>
				<g>
					<polygon fill="#6591EA" points="270.2,281.5 264.5,284.8 240.7,271.1 246.4,267.8 					"/>
				</g>
				<g>
					<polygon fill="#6591EA" points="196.4,281.5 186,287.6 171.8,279.3 182.2,273.3 					"/>
				</g>
				<g>
					<polygon fill="#6591EA" points="228.4,284.2 218,290.2 203.8,282 214.1,275.9 					"/>
				</g>
				<g>
					<polygon fill="#6591EA" points="260.3,286.8 249.9,292.8 235.7,284.6 246.1,278.6 					"/>
				</g>
				<g>
					<polygon fill="#6591EA" points="214.8,292.1 204.4,298.1 190.1,289.9 200.5,283.9 					"/>
				</g>
				<g>
					<polygon fill="#6591EA" points="246.7,294.7 236.3,300.8 222.1,292.6 232.5,286.5 					"/>
				</g>
				<g>
					<polygon fill="#6591EA" points="233.1,302.7 222.7,308.7 208.4,300.5 218.8,294.4 					"/>
				</g>
				<g>
					<polygon fill="#6591EA" points="265,305.3 254.6,311.3 240.4,303.1 250.7,297.1 					"/>
				</g>
				<g>
					<polygon fill="#6591EA" points="251.4,313.2 241,319.3 226.7,311 237.1,305 					"/>
				</g>
				<g>
					<polygon fill="#6591EA" points="283.3,315.9 272.9,321.9 258.7,313.7 269.1,307.7 					"/>
				</g>
				<g>
					<polygon fill="#6591EA" points="316.4,319.2 306,325.2 277.1,308.5 287.5,302.5 					"/>
				</g>
				<g>
					<polygon fill="#6591EA" points="240.5,321.4 230.6,327.2 141.6,275.8 151.5,270.1 					"/>
				</g>
				<g>
					<polygon fill="#6591EA" points="269.7,323.8 259.3,329.8 246.2,322.3 245,321.6 255.4,315.6 					"/>
				</g>
				<g>
					<polygon fill="#6591EA" points="258.3,331.7 248.4,337.5 234.2,329.3 244.1,323.5 					"/>
				</g>
			</g>
			<g>
				<polygon fill="#6591EA" points="276.6,342.3 266.7,348 252.5,339.8 262.4,334.1 				"/>
			</g>
			<g>
				<polygon fill="#6591EA" points="129,257.1 119.1,262.8 104.9,254.6 114.8,248.9 				"/>
			</g>
			<g>
				<polygon fill="#6591EA" points="302.7,327.1 292.4,333.1 277,324.3 287.4,318.2 				"/>
			</g>
			<g>
				<polygon fill="#6591EA" points="289.1,335 278.7,341.1 246.2,322.3 259.3,329.8 269.7,323.8 				"/>
			</g>
			<g>
				<polygon fill="#6591EA" points="278.6,297.4 268.3,303.4 254,295.2 264.4,289.1 				"/>
			</g>
			<g>
				<polygon fill="#6591EA" points="325.1,313.2 319.4,316.5 295.6,302.8 301.3,299.5 				"/>
			</g>
		</g>
		<g>
			<g>
				<polygon fill="#85A9FF" points="141.5,249.1 131.1,255.2 116.9,246.9 127.3,240.9 				"/>
			</g>
			<g>
				<polygon fill="#85A9FF" points="168.8,233.3 158.4,239.3 144.2,231.1 154.6,225.1 				"/>
			</g>
			<g>
				<polygon fill="#85A9FF" points="155.2,241.2 144.8,247.2 130.5,239 140.9,233 				"/>
			</g>
			<g>
				<polygon fill="#85A9FF" points="187.8,233.3 182.1,236.6 158.4,222.8 164,219.5 				"/>
			</g>
			<g>
				<polygon fill="#85A9FF" points="215.3,249.1 209.6,252.4 185.8,238.7 191.5,235.4 				"/>
			</g>
			<g>
				<polygon fill="#85A9FF" points="297.6,296.7 292,300 268.2,286.2 273.9,282.9 				"/>
			</g>
			<g enable-background="new    ">
				<g>
					<polygon fill="#85A9FF" points="187.1,243.8 176.7,249.9 162.5,241.7 172.9,235.6 					"/>
				</g>
				<g>
					<polygon fill="#85A9FF" points="173.5,251.8 163.1,257.8 148.9,249.6 159.2,243.5 					"/>
				</g>
				<g>
					<polygon fill="#85A9FF" points="205.4,254.4 195,260.4 180.8,252.2 191.2,246.2 					"/>
				</g>
				<g>
					<polygon fill="#85A9FF" points="159.8,259.7 149.5,265.7 135.2,257.5 145.6,251.5 					"/>
				</g>
				<g>
					<polygon fill="#85A9FF" points="242.7,265 237,268.3 213.3,254.5 219,251.2 					"/>
				</g>
				<g>
					<polygon fill="#85A9FF" points="191.8,262.3 181.4,268.4 167.2,260.1 177.5,254.1 					"/>
				</g>
				<g>
					<polygon fill="#85A9FF" points="223.7,265 213.3,271 199.1,262.8 209.5,256.8 					"/>
				</g>
				<g>
					<polygon fill="#85A9FF" points="147.3,267 137.5,272.7 123.2,264.5 133.1,258.7 					"/>
				</g>
				<g>
					<polygon fill="#85A9FF" points="178.1,270.3 167.8,276.3 153.5,268.1 163.9,262 					"/>
				</g>
				<g>
					<polygon fill="#85A9FF" points="210.1,272.9 199.7,278.9 185.5,270.7 195.8,264.7 					"/>
				</g>
				<g>
					<polygon fill="#85A9FF" points="242,275.6 231.6,281.6 217.4,273.4 227.8,267.3 					"/>
				</g>
				<g>
					<polygon fill="#85A9FF" points="270.2,280.8 264.5,284.1 240.7,270.4 246.4,267.1 					"/>
				</g>
				<g>
					<polygon fill="#85A9FF" points="196.4,280.8 186,286.9 171.8,278.6 182.2,272.6 					"/>
				</g>
				<g>
					<polygon fill="#85A9FF" points="228.4,283.5 218,289.5 203.8,281.3 214.1,275.3 					"/>
				</g>
				<g>
					<polygon fill="#85A9FF" points="260.3,286.1 249.9,292.1 235.7,283.9 246.1,277.9 					"/>
				</g>
				<g>
					<polygon fill="#85A9FF" points="214.8,291.4 204.4,297.4 190.1,289.2 200.5,283.2 					"/>
				</g>
				<g>
					<polygon fill="#85A9FF" points="246.7,294 236.3,300.1 222.1,291.9 232.5,285.8 					"/>
				</g>
				<g>
					<polygon fill="#85A9FF" points="233.1,302 222.7,308 208.4,299.8 218.8,293.7 					"/>
				</g>
				<g>
					<polygon fill="#85A9FF" points="265,304.6 254.6,310.6 240.4,302.4 250.7,296.4 					"/>
				</g>
				<g>
					<polygon fill="#85A9FF" points="251.4,312.5 241,318.6 226.7,310.3 237.1,304.3 					"/>
				</g>
				<g>
					<polygon fill="#85A9FF" points="283.3,315.2 272.9,321.2 258.7,313 269.1,306.9 					"/>
				</g>
				<g>
					<polygon fill="#85A9FF" points="316.4,318.5 306,324.5 277.1,307.9 287.5,301.8 					"/>
				</g>
				<g>
					<polygon fill="#85A9FF" points="240.5,320.7 230.6,326.5 141.6,275.1 151.5,269.4 					"/>
				</g>
				<g>
					<polygon fill="#85A9FF" points="269.7,323.1 259.3,329.1 246.2,321.6 245,320.9 255.4,314.9 					"/>
				</g>
				<g>
					<polygon fill="#85A9FF" points="258.3,331 248.4,336.8 234.2,328.6 244.1,322.8 					"/>
				</g>
			</g>
			<g>
				<polygon fill="#85A9FF" points="276.6,341.6 266.7,347.3 252.5,339.1 262.4,333.4 				"/>
			</g>
			<g>
				<polygon fill="#85A9FF" points="129,256.4 119.1,262.1 104.9,253.9 114.8,248.2 				"/>
			</g>
			<g>
				<polygon fill="#85A9FF" points="302.7,326.4 292.4,332.4 277,323.5 287.4,317.5 				"/>
			</g>
			<g>
				<polygon fill="#85A9FF" points="289.1,334.3 278.7,340.4 246.2,321.6 259.3,329.1 269.7,323.1 				"/>
			</g>
			<g>
				<polygon fill="#85A9FF" points="278.6,296.7 268.3,302.7 254,294.5 264.4,288.5 				"/>
			</g>
			<g>
				<polygon fill="#85A9FF" points="325.1,312.5 319.4,315.8 295.6,302.1 301.3,298.8 				"/>
			</g>
		</g>
		<g>
			<path fill="#5B7DC1" d="M189.8,311c1.9,1.1,1.9,2.9,0,4l-24.6,14.3c-1.9,1.1-4.9,1.1-6.8,0l-31.4-18.2c-1.9-1.1-1.9-2.9,0-4
				l24.6-14.3c1.9-1.1,4.9-1.1,6.9,0L189.8,311z"/>
		</g>
		<g>
			<path fill="#7392DC" d="M189.8,315l-24.6,14.3c-1.9,1.1-4.9,1.1-6.8,0l-31.4-18.2c-0.5-0.3-0.8-0.6-1.1-1
				c0.2-0.3,0.6-0.7,1.1-0.9l24.6-14.3c1.9-1.1,4.9-1.1,6.9,0l31.4,18.2c0.5,0.3,0.8,0.6,1.1,1C190.6,314.4,190.3,314.7,189.8,315z"
				/>
		</g>
		<g>
			<g>
				<path fill="#D7E9FF" d="M327.2,329.7C327.2,329.7,327.2,329.7,327.2,329.7c0-0.1,0-0.1,0-0.1c0,0,0,0,0-0.1c0,0,0,0,0-0.1
					c0,0,0,0,0-0.1c0,0,0-0.1,0-0.1c0,0,0,0,0-0.1c0,0,0,0,0-0.1c0,0,0,0,0-0.1c0,0,0,0,0,0c0,0,0-0.1,0-0.1c0,0,0,0,0-0.1
					c0,0,0,0,0-0.1c0,0,0,0,0-0.1c0,0,0,0,0-0.1c0,0,0,0,0-0.1c0,0,0,0,0-0.1c0,0,0,0,0-0.1c0,0,0-0.1,0-0.1c0,0,0,0,0,0
					c0,0,0,0,0,0c0-0.1,0.1-0.1,0.1-0.1c0,0,0-0.1,0.1-0.1c0,0,0,0,0.1-0.1c0,0,0,0,0.1-0.1c0,0,0,0,0-0.1c0,0,0,0,0,0
					c0,0,0,0,0-0.1c0,0,0,0,0.1-0.1c0,0,0,0,0,0c0,0,0,0,0,0c0,0,0,0,0.1,0c0,0,0,0,0.1-0.1c0,0,0,0,0,0c0,0,0,0,0.1,0c0,0,0,0,0,0
					c0,0,0,0,0,0l13.3-7.7c0,0,0,0,0,0c0,0,0,0,0,0c0,0,0,0,0.1,0c0,0,0,0,0,0c0,0,0,0,0,0c0,0,0,0,0.1,0c0,0,0,0,0,0c0,0,0,0,0.1,0
					c0,0,0,0,0.1,0c0,0,0,0,0,0c0,0,0,0,0,0c0,0,0,0,0.1,0c0,0,0,0,0.1,0c0,0,0,0,0.1,0c0,0,0.1,0,0.1,0c0,0,0.1,0,0.1,0.1l1.3,0.8
					c-0.1-0.1-0.3-0.1-0.4-0.1c-0.2,0-0.3,0.1-0.5,0.2l-13.3,7.7c-0.2,0.1-0.3,0.2-0.5,0.4c-0.2,0.2-0.3,0.3-0.4,0.5c0,0,0,0,0,0
					c-0.1,0.2-0.2,0.4-0.3,0.6c0,0,0,0,0,0c-0.1,0.2-0.1,0.4-0.1,0.6c0,0.2,0,0.4,0.1,0.5v0c0.1,0.1,0.2,0.2,0.3,0.3l-1.3-0.8
					c-0.1,0-0.2-0.1-0.2-0.2c0,0,0-0.1,0-0.1c0,0,0,0,0-0.1c0,0,0,0,0-0.1c0,0,0,0,0-0.1c0,0,0,0,0-0.1c0,0,0,0,0-0.1c0,0,0,0,0-0.1
					c0,0,0,0,0-0.1C327.2,329.8,327.2,329.8,327.2,329.7C327.2,329.8,327.2,329.8,327.2,329.7z"/>
				<g>
					<path fill="#ADD3EA" d="M329.8,328.4c-0.7,0.4-1.2,1.4-1.2,2.2c0,0.8,0.6,1.1,1.3,0.7l13.3-7.7c0.7-0.4,1.2-1.4,1.2-2.2
						c0-0.8-0.6-1.1-1.2-0.7L329.8,328.4z"/>
				</g>
			</g>
			<g>
				<path fill="#D7E9FF" d="M308.3,340.4C308.3,340.4,308.3,340.4,308.3,340.4c0-0.1,0-0.1,0-0.1c0,0,0,0,0-0.1c0,0,0,0,0-0.1
					c0,0,0,0,0-0.1c0,0,0,0,0-0.1c0,0,0-0.1,0-0.1c0,0,0,0,0-0.1c0,0,0,0,0-0.1c0,0,0,0,0,0c0,0,0-0.1,0-0.1c0,0,0,0,0-0.1
					c0,0,0,0,0-0.1c0,0,0,0,0-0.1c0,0,0,0,0-0.1c0,0,0,0,0-0.1c0,0,0-0.1,0-0.1c0,0,0-0.1,0-0.1c0,0,0-0.1,0-0.1c0,0,0,0,0,0
					c0,0,0,0,0,0c0-0.1,0.1-0.1,0.1-0.2c0,0,0.1-0.1,0.1-0.1c0,0,0,0,0.1-0.1c0,0,0,0,0,0c0,0,0,0,0-0.1c0,0,0,0,0.1-0.1
					c0,0,0,0,0-0.1c0,0,0,0,0-0.1c0,0,0,0,0.1,0c0,0,0,0,0.1-0.1c0,0,0,0,0.1,0c0,0,0,0,0.1,0c0,0,0,0,0.1,0c0,0,0,0,0,0
					c0,0,0,0,0.1,0c0,0,0,0,0,0l13.3-7.7c0,0,0,0,0,0c0,0,0,0,0.1,0c0,0,0,0,0,0c0,0,0,0,0.1,0c0,0,0,0,0.1,0c0,0,0,0,0,0
					c0,0,0,0,0.1,0c0,0,0,0,0,0c0,0,0,0,0.1,0c0,0,0,0,0,0c0,0,0,0,0,0c0,0,0,0,0.1,0c0,0,0,0,0.1,0c0,0,0.1,0,0.1,0
					c0,0,0.1,0,0.1,0c0,0,0.1,0,0.1,0l1.3,0.8c-0.1-0.1-0.2-0.1-0.4-0.1c-0.1,0-0.3,0.1-0.5,0.2l-13.3,7.7c-0.2,0.1-0.3,0.2-0.5,0.4
					c-0.2,0.2-0.3,0.3-0.4,0.5c0,0,0,0,0,0c-0.1,0.2-0.2,0.4-0.3,0.6v0c-0.1,0.2-0.1,0.4-0.1,0.6c0,0.2,0,0.4,0.1,0.5
					c0.1,0.1,0.2,0.2,0.3,0.3l-1.3-0.8c-0.1-0.1-0.2-0.1-0.2-0.2c0,0,0,0,0-0.1c0,0,0-0.1,0-0.1c0,0,0,0,0-0.1c0,0,0,0,0-0.1
					c0,0,0,0,0-0.1c0,0,0,0,0-0.1c0,0,0,0,0-0.1c0,0,0,0,0-0.1C308.3,340.5,308.3,340.5,308.3,340.4
					C308.3,340.5,308.3,340.5,308.3,340.4z"/>
				<g>
					<path fill="#ADD3EA" d="M310.8,339.1c-0.7,0.4-1.3,1.4-1.2,2.2c0,0.8,0.6,1.1,1.3,0.7l13.3-7.7c0.7-0.4,1.3-1.4,1.2-2.2
						c0-0.8-0.6-1.1-1.3-0.7L310.8,339.1z"/>
				</g>
			</g>
		</g>
		<g>
			<path fill="#AACFE5" d="M323.9,296.1c2.6,1.5,2.6,3.9,0,5.4c-2.6,1.5-6.7,1.5-9.2,0l-17.9-10.4c-2.5-1.5-2.6-3.9,0-5.3
				c2.5-1.5,6.7-1.5,9.2,0L323.9,296.1z"/>
		</g>
		<path fill="#C3DFF4" d="M324,301.5c-2.6,1.5-6.7,1.5-9.2,0l-17.9-10.4c-0.8-0.5-1.4-1.1-1.7-1.7c0.3-0.6,0.8-1.2,1.7-1.7
			c2.5-1.5,6.7-1.5,9.2,0l17.9,10.4c0.9,0.5,1.4,1.1,1.7,1.7C325.3,300.4,324.8,301,324,301.5z"/>
		<g>
			<path fill="#AACFE5" d="M205.4,227.6c2.6,1.5,2.6,3.9,0,5.3c-2.6,1.5-6.7,1.5-9.2,0l-17.9-10.4c-2.6-1.5-2.6-3.9,0-5.4
				c2.5-1.5,6.7-1.5,9.2,0L205.4,227.6z"/>
		</g>
		<path fill="#C3DFF4" d="M205.4,232.9c-2.6,1.5-6.7,1.5-9.2,0l-17.9-10.4c-0.9-0.5-1.4-1.1-1.7-1.7c0.3-0.6,0.8-1.2,1.6-1.7
			c2.5-1.5,6.7-1.5,9.2,0l17.9,10.4c0.8,0.5,1.4,1.1,1.7,1.7C206.7,231.8,206.2,232.4,205.4,232.9z"/>
		<g>
			<path fill="#D7E9FF" d="M359.2,172.6l-30,106.8c-0.6,2.3-2.6,3.3-4.4,2.3l-128.2-74c-0.7-0.4-1.3-1.2-1.7-2c0-0.3,0.1-0.7,0.2-1
				l30.3-107.9c0.7-2.3,2.7-3.4,4.5-2.3L359,169.1C359.4,170.2,359.5,171.5,359.2,172.6z"/>
			<path fill="#C3DFF4" d="M343.9,183.2l-9.6,34.2c-0.2,0.7-0.8,1.1-1.4,0.7l-41-23.7c-0.2-0.1-0.4-0.4-0.5-0.7c0-0.1,0-0.2,0.1-0.3
				l9.7-34.5c0.2-0.7,0.8-1.1,1.4-0.7l41.3,23.9C343.9,182.4,344,182.8,343.9,183.2z"/>
			<path fill="#C3DFF4" d="M329.7,226.2l-9.6,34.2c-0.2,0.7-0.8,1.1-1.4,0.7l-41-23.7c-0.2-0.1-0.4-0.4-0.6-0.6c0-0.1,0-0.2,0.1-0.3
				l9.7-34.5c0.2-0.7,0.9-1.1,1.4-0.7l41.3,23.9C329.8,225.4,329.8,225.8,329.7,226.2z"/>
			<path fill="#C3DFF4" d="M271.5,141.8l-9.6,34.2c-0.2,0.7-0.8,1.1-1.4,0.7l-41-23.7c-0.2-0.1-0.4-0.4-0.5-0.7c0-0.1,0-0.2,0-0.3
				l9.7-34.5c0.2-0.7,0.8-1.1,1.4-0.7l41.3,23.9C271.6,141,271.6,141.4,271.5,141.8z"/>
			<path fill="#C3DFF4" d="M257.3,184.9l-9.6,34.2c-0.2,0.7-0.8,1.1-1.4,0.7l-41-23.7c-0.2-0.1-0.4-0.4-0.5-0.7c0-0.1,0-0.2,0.1-0.3
				l9.7-34.5c0.2-0.7,0.8-1.1,1.4-0.7l41.3,23.9C257.4,184.1,257.4,184.5,257.3,184.9z"/>
			<path fill="#608EEA" d="M229.8,94.5L359,169.1c0.4,1.1,0.5,2.4,0.1,3.6l-2.3,8.3l-133.5-77.1l2-7.1C226,94.4,228,93.4,229.8,94.5
				z"/>
			<path fill="#C3DFF4" d="M347.3,171.1c0,1.9,1.4,3.4,3.2,3.4c1.8,0,3.3-1.5,3.3-3.4c0-1.9-1.5-3.4-3.3-3.4
				C348.8,167.7,347.3,169.3,347.3,171.1z"/>
			<path fill="#C3DFF4" d="M339.5,167c0,1.9,1.5,3.4,3.2,3.4c1.8,0,3.2-1.5,3.2-3.4c0-1.9-1.5-3.4-3.2-3.4
				C340.9,163.5,339.5,165.1,339.5,167z"/>
			<path fill="#C3DFF4" d="M331.6,162.5c0,1.9,1.4,3.4,3.2,3.4c1.8,0,3.2-1.5,3.2-3.4c0-1.9-1.4-3.4-3.2-3.4
				C333.1,159.1,331.6,160.6,331.6,162.5z"/>
		</g>
	</g>
	<g>
		<g>
			<g>
				<path fill="#FCDA4C" d="M274.5,207.6c4.1,2.4,4.1,6.2,0.1,8.5l-9.8,5.7c-4.1,2.4-10.7,2.4-14.7,0l-71.5-41.3
					c-4.1-2.4-4.1-6.2-0.1-8.5l9.8-5.7c4.1-2.4,10.7-2.3,14.7,0L274.5,207.6z"/>
			</g>
			<path fill="#EA8A33" d="M175.4,176.2l-0.2,85c0,1.6,1,3.1,3.1,4.3l0.2-85C176.4,179.3,175.4,177.8,175.4,176.2z"/>
			<polygon fill="#FECC2F" points="178.5,180.5 178.3,265.5 249.8,306.8 250,221.8 			"/>
			<path fill="#EA8A33" d="M277.6,211.9c0,0.4-0.1,0.7-0.2,1.1c0,0,0,0.1,0,0.1c-0.1,0.3-0.3,0.7-0.5,1c0,0.1-0.1,0.1-0.1,0.2
				c-0.2,0.3-0.5,0.6-0.8,0.9c-0.2,0.2-0.5,0.4-0.7,0.6c-0.2,0.2-0.4,0.3-0.6,0.4l-9.8,5.7c-0.6,0.4-1.3,0.7-2.1,0.9
				c-0.3,0.1-0.5,0.2-0.8,0.2c-0.3,0.1-0.7,0.2-1,0.3c-0.4,0.1-0.8,0.2-1.3,0.2c-0.1,0-0.2,0-0.3,0c-0.6,0.1-1.2,0.1-1.8,0.1
				c-0.1,0-0.2,0-0.3,0c-0.6,0-1.2,0-1.7-0.1c-0.1,0-0.2,0-0.3,0c-0.6-0.1-1.1-0.2-1.7-0.3c-0.1,0-0.2,0-0.3-0.1
				c-0.5-0.1-1-0.3-1.5-0.4c-0.1,0-0.2-0.1-0.3-0.1c-0.6-0.2-1.1-0.5-1.6-0.8l-0.2,85c0.5,0.3,1,0.5,1.5,0.7c0,0,0.1,0,0.1,0
				c0.1,0,0.2,0.1,0.3,0.1c0.3,0.1,0.6,0.2,0.9,0.3c0.2,0,0.3,0.1,0.5,0.1c0.1,0,0.2,0.1,0.3,0.1c0.1,0,0.2,0,0.3,0.1
				c0.3,0.1,0.7,0.1,1,0.2c0.1,0,0.2,0,0.4,0c0.1,0,0.2,0,0.2,0c0.1,0,0.3,0,0.4,0c0.3,0,0.7,0,1,0.1c0.1,0,0.2,0,0.3,0
				c0.1,0,0.2,0,0.3,0c0.2,0,0.3,0,0.5,0c0.4,0,0.8,0,1.2-0.1c0,0,0.1,0,0.1,0c0.1,0,0.2,0,0.3,0c0.3,0,0.6-0.1,0.9-0.1
				c0.1,0,0.2-0.1,0.4-0.1c0.4-0.1,0.7-0.2,1-0.3c0.2-0.1,0.4-0.1,0.5-0.1c0.1,0,0.1-0.1,0.2-0.1c0.7-0.3,1.4-0.5,2.1-0.9l9.8-5.7
				c0,0,0.1,0,0.1-0.1c0.2-0.1,0.3-0.2,0.5-0.4c0.3-0.2,0.5-0.4,0.8-0.6c0,0,0,0,0.1,0c0.2-0.2,0.5-0.5,0.6-0.7
				c0-0.1,0.1-0.1,0.1-0.2c0-0.1,0.1-0.1,0.1-0.2c0.1-0.1,0.1-0.2,0.2-0.3c0.1-0.2,0.2-0.4,0.3-0.6c0,0,0-0.1,0-0.1c0,0,0-0.1,0-0.1
				c0-0.1,0.1-0.3,0.1-0.4c0-0.2,0.1-0.4,0.1-0.6c0,0,0-0.1,0-0.1l0.2-74.1L277.6,211.9C277.6,211.9,277.6,211.9,277.6,211.9z"/>
			<path fill="#FECC2F" d="M205.2,160.9c0.1-0.8,0.2-1.5,0.3-2.2c0-0.1,0-0.2,0.1-0.3c0.1-0.7,0.3-1.4,0.5-2c0-0.1,0.1-0.2,0.1-0.3
				c0.2-0.5,0.4-1,0.6-1.5c0.1-0.1,0.1-0.3,0.2-0.4c0.2-0.5,0.5-0.9,0.7-1.3c0.1-0.1,0.1-0.3,0.2-0.4c0.3-0.5,0.7-0.9,1-1.4
				c0.1-0.1,0.2-0.2,0.3-0.3c0.3-0.3,0.6-0.6,0.9-0.9c0.1-0.1,0.2-0.2,0.3-0.3c0.4-0.3,0.8-0.7,1.3-0.9c-0.4,0.2-0.7,0.4-1.1,0.6
				c-0.1,0.1-0.3,0.1-0.4,0.2c-0.1,0-0.1,0.1-0.2,0.1l-5.7,3.3c-0.5,0.3-0.9,0.6-1.3,0.9c-0.1,0.1-0.2,0.2-0.4,0.3
				c-0.3,0.3-0.6,0.6-0.9,0.9c-0.1,0.1-0.2,0.2-0.3,0.3c-0.3,0.4-0.7,0.8-1,1.3c0,0,0,0,0,0.1c-0.1,0.1-0.1,0.3-0.2,0.4
				c-0.2,0.4-0.4,0.7-0.6,1.1c0,0.1,0,0.1-0.1,0.2c-0.1,0.1-0.1,0.3-0.2,0.4c-0.1,0.2-0.2,0.5-0.3,0.8c-0.1,0.2-0.2,0.5-0.3,0.8
				c0,0.1-0.1,0.2-0.1,0.3c0,0.1,0,0.1-0.1,0.2c-0.1,0.4-0.2,0.8-0.3,1.2c0,0.2-0.1,0.4-0.1,0.5c0,0.1,0,0.2-0.1,0.3
				c0,0.1,0,0.2-0.1,0.3c-0.1,0.4-0.1,0.8-0.2,1.2c0,0.2-0.1,0.5-0.1,0.7c0,0.1,0,0.1,0,0.2c0,0.1,0,0.1,0,0.2
				c0,0.4-0.1,0.8-0.1,1.2c0,0.4,0,0.8,0,1.2c0,0,0,0,0,0.1l0,16.3l7.3-4.3l0-16.3c0-0.9,0-1.8,0.1-2.6
				C205.2,161,205.2,161,205.2,160.9z"/>
			<path fill="#FECC2F" d="M264.2,192.2c0-0.5,0-0.9-0.1-1.4c0-0.2,0-0.4,0-0.6c0-0.1,0-0.2,0-0.3c0-0.2,0-0.3,0-0.5
				c0-0.5-0.1-0.9-0.2-1.4c-0.1-0.5-0.1-0.9-0.2-1.4c0,0,0,0,0,0c0,0,0,0,0-0.1c-0.1-0.4-0.1-0.9-0.2-1.3c-0.1-0.5-0.2-1-0.3-1.5
				c0-0.2-0.1-0.3-0.1-0.5c0-0.1,0-0.2-0.1-0.3c-0.1-0.2-0.1-0.4-0.2-0.7c-0.1-0.5-0.3-1-0.4-1.5c-0.1-0.4-0.2-0.7-0.3-1.1
				c0-0.1,0-0.2-0.1-0.3c0-0.1,0-0.1-0.1-0.2c-0.1-0.5-0.3-1-0.5-1.5c-0.2-0.5-0.3-1-0.5-1.4c0-0.1-0.1-0.2-0.1-0.3
				c0-0.1,0-0.1-0.1-0.2c-0.1-0.3-0.2-0.6-0.3-0.9c-0.2-0.5-0.4-0.9-0.6-1.4c-0.1-0.3-0.3-0.6-0.4-0.9c0-0.1-0.1-0.2-0.1-0.2
				c0-0.1-0.1-0.1-0.1-0.2c-0.2-0.5-0.4-0.9-0.6-1.4c-0.2-0.5-0.5-1-0.7-1.5c0-0.1-0.1-0.2-0.1-0.2c0-0.1-0.1-0.2-0.1-0.2
				c-0.2-0.4-0.4-0.8-0.6-1.2c-0.3-0.5-0.5-1-0.8-1.4c-0.1-0.2-0.3-0.5-0.4-0.7c-0.1-0.1-0.1-0.2-0.2-0.3c-0.2-0.4-0.5-0.8-0.8-1.2
				c-0.4-0.6-0.8-1.2-1.2-1.9c-0.1-0.1-0.1-0.2-0.2-0.3c-0.6-0.9-1.2-1.7-1.8-2.5c-0.4-0.6-0.8-1.1-1.2-1.6
				c-0.3-0.4-0.7-0.9-1.1-1.3c0,0,0,0,0,0c0,0,0,0,0,0c-0.4-0.4-0.7-0.9-1.1-1.3c-0.4-0.4-0.7-0.8-1.1-1.2c-0.1-0.1-0.1-0.1-0.2-0.2
				c-0.1-0.1-0.1-0.1-0.2-0.2c-0.3-0.3-0.5-0.5-0.8-0.8c-0.4-0.4-0.8-0.8-1.2-1.2c-0.1-0.1-0.2-0.2-0.4-0.3
				c-0.1-0.1-0.2-0.2-0.3-0.3c-0.2-0.2-0.4-0.4-0.6-0.5c-0.4-0.4-0.8-0.7-1.3-1.1c-0.2-0.2-0.4-0.3-0.5-0.5
				c-0.1-0.1-0.2-0.2-0.3-0.2c-0.1-0.1-0.3-0.2-0.4-0.3c-0.4-0.3-0.8-0.6-1.2-0.9c-0.3-0.2-0.6-0.4-0.9-0.6c-0.1,0-0.1-0.1-0.2-0.1
				c0,0-0.1-0.1-0.1-0.1c-0.4-0.3-0.8-0.5-1.2-0.8c-0.4-0.2-0.8-0.5-1.2-0.7c-0.1-0.1-0.2-0.1-0.3-0.2l-11.9-6.9
				c-0.3-0.2-0.6-0.3-0.9-0.5c-0.4-0.2-0.8-0.4-1.2-0.6c-0.3-0.1-0.5-0.2-0.8-0.4c0,0-0.1,0-0.1-0.1c-0.1,0-0.2-0.1-0.2-0.1
				c-0.4-0.2-0.8-0.3-1.1-0.5c-0.4-0.2-0.8-0.3-1.1-0.4c-0.1,0-0.1,0-0.2-0.1c0,0-0.1,0-0.2-0.1c-0.3-0.1-0.5-0.2-0.8-0.2
				c-0.4-0.1-0.8-0.2-1.2-0.3c-0.2,0-0.4-0.1-0.5-0.1c-0.1,0-0.2,0-0.3-0.1c-0.1,0-0.2-0.1-0.4-0.1c-0.4-0.1-0.8-0.1-1.2-0.2
				c-0.2,0-0.5-0.1-0.7-0.1c-0.1,0-0.2,0-0.3,0c-0.1,0-0.2,0-0.2,0c-0.5,0-0.9,0-1.3,0c-0.2,0-0.4,0-0.6,0c-0.2,0-0.3,0-0.4,0
				c-0.2,0-0.3,0-0.5,0c-0.6,0-1.1,0.1-1.6,0.2c0,0,0,0,0,0c-0.1,0-0.2,0.1-0.3,0.1c-0.5,0.1-1.1,0.3-1.6,0.4c0,0-0.1,0-0.1,0.1
				c-0.8,0.3-1.5,0.6-2.2,1c-1,0.6-2,1.1-2.9,1.7c-1.1,0.6-2.2,1.3-3.3,1.9c-0.4,0.2-0.7,0.4-1.1,0.6c0.7-0.4,1.4-0.7,2.2-1
				c0.6-0.2,1.1-0.4,1.7-0.5c0.1,0,0.2-0.1,0.3-0.1c0.7-0.1,1.4-0.2,2.1-0.3c0.1,0,0.3,0,0.4,0c0.7,0,1.4,0,2.1,0c0.1,0,0.2,0,0.3,0
				c0.8,0.1,1.5,0.2,2.3,0.4c0.1,0,0.2,0,0.3,0.1c0.8,0.2,1.6,0.4,2.5,0.7c0.1,0,0.1,0,0.2,0.1c0.9,0.3,1.8,0.7,2.7,1.1
				c0.1,0,0.1,0.1,0.2,0.1c0.9,0.4,1.9,0.9,2.8,1.5l11.9,6.9c1,0.6,1.9,1.2,2.8,1.8c0.1,0,0.1,0.1,0.2,0.1c0.9,0.6,1.7,1.3,2.6,2
				c0.1,0.1,0.2,0.1,0.2,0.2c0.8,0.7,1.6,1.4,2.4,2.1c0.1,0.1,0.2,0.2,0.3,0.2c0.8,0.8,1.6,1.5,2.4,2.3c0.1,0.1,0.1,0.1,0.2,0.2
				c0.8,0.9,1.6,1.8,2.4,2.7c0,0,0,0,0,0c0.8,1,1.6,1.9,2.3,2.9c0,0,0,0,0,0c0.7,0.9,1.3,1.8,1.9,2.8c0.4,0.6,0.8,1.2,1.1,1.8
				c0.3,0.5,0.7,1,1,1.6c0.1,0.2,0.3,0.5,0.4,0.7c0.5,0.9,1,1.8,1.4,2.7c0,0.1,0.1,0.2,0.1,0.3c0.5,1.1,1.1,2.2,1.5,3.3
				c0,0,0,0.1,0.1,0.1c0.5,1.1,0.9,2.2,1.3,3.3c0,0.1,0.1,0.1,0.1,0.2c0.4,1.1,0.8,2.2,1.1,3.4c0,0.1,0,0.1,0,0.2
				c0.3,1.1,0.6,2.2,0.9,3.3c0,0.1,0,0.2,0.1,0.3c0.5,2.3,0.9,4.5,1.1,6.8c0,0.1,0,0.2,0,0.2c0.1,1.1,0.1,2.2,0.1,3.3l-0.1,20.6
				l7.3-4.3l0.1-20.6C264.3,193.1,264.2,192.7,264.2,192.2z"/>
			<g>
				<g>
					<g>
						<path fill="#EA8A33" d="M228.7,149c15.6,9,28.2,30.8,28.2,48.8l-0.1,20.6l-9.3-5.4l0-16.3c0-14.2-9.1-31-20.5-37.5l-8.7-5
							c-11.3-6.5-20.6-0.4-20.6,13.8l0,16.3l-9.3-5.4l0.1-20.6c0-17.9,12.7-25.2,28.3-16.2L228.7,149z"/>
					</g>
				</g>
			</g>
		</g>
		<g>
			<path fill="#2D1D1F" d="M212.2,224.9c-3.5-2-6.4-0.4-6.4,3.6c0,2.3,0.9,4.8,2.3,7l-2.4,19.1l12.8,7.4l-2.3-21.7
				c1.4-0.5,2.3-2,2.3-4.3C218.6,231.8,215.8,226.9,212.2,224.9z"/>
		</g>
	</g>
	<g>
		<path fill="#E92E2D" d="M290.2,162.4c-0.3-0.1-0.7-0.2-1-0.3c-0.2-0.1-0.4-0.1-0.6-0.2c-0.2,0-0.4-0.1-0.6-0.1
			c-0.2,0-0.5-0.1-0.7-0.1c-0.2,0-0.3,0-0.4,0c-0.3,0-0.6,0-0.9,0c-0.1,0-0.1,0-0.2,0c-0.4,0-0.7,0.1-1.1,0.1c-0.1,0-0.2,0-0.2,0.1
			c-0.3,0.1-0.5,0.1-0.8,0.2c-0.1,0-0.1,0-0.2,0.1c-0.3,0.1-0.6,0.3-0.9,0.4c0,0,0,0,0.1,0l2.6-1.5l3.2-1.9c0,0,0.1,0,0.1,0
			c0.2-0.1,0.5-0.2,0.7-0.3c0,0,0.1,0,0.1,0c0.1,0,0.2-0.1,0.3-0.1c0.1,0,0.2-0.1,0.4-0.1c0.1,0,0.3-0.1,0.4-0.1
			c0.1,0,0.2,0,0.3-0.1c0,0,0.1,0,0.1,0c0.3,0,0.6-0.1,0.9-0.1c0,0,0,0,0.1,0c0.1,0,0.1,0,0.2,0c0.2,0,0.5,0,0.7,0
			c0.1,0,0.2,0,0.2,0c0.1,0,0.3,0,0.4,0c0.1,0,0.3,0,0.4,0c0.1,0,0.2,0.1,0.3,0.1c0.2,0,0.4,0.1,0.6,0.1c0.1,0,0.2,0,0.3,0.1
			c0.1,0,0.2,0.1,0.3,0.1c0.3,0.1,0.7,0.2,1,0.3c0.1,0,0.2,0.1,0.4,0.1c0.1,0,0.1,0.1,0.2,0.1c0.6,0.2,1.2,0.5,1.8,0.9l79.9,46.1
			c0.9,0.5,1.8,1.2,2.7,1.8c0.3,0.2,0.5,0.5,0.8,0.7c0.4,0.4,0.9,0.7,1.3,1.1c0.2,0.2,0.4,0.4,0.5,0.6c0.2,0.2,0.3,0.3,0.5,0.5
			c0.2,0.2,0.4,0.4,0.5,0.6c0.4,0.5,0.8,0.9,1.1,1.4c0.1,0.2,0.3,0.3,0.4,0.5c0.1,0.1,0.1,0.2,0.2,0.3c0.1,0.2,0.2,0.3,0.4,0.5
			c0.3,0.4,0.6,0.8,0.8,1.2c0.2,0.4,0.5,0.8,0.7,1.2c0,0,0,0.1,0.1,0.1c0,0,0,0.1,0.1,0.1c0.2,0.3,0.4,0.6,0.5,1
			c0.2,0.4,0.4,0.8,0.6,1.2c0.2,0.4,0.3,0.7,0.5,1.1c0,0,0,0.1,0,0.1c0,0,0,0,0,0c0.2,0.4,0.4,0.8,0.5,1.3c0.2,0.4,0.3,0.9,0.5,1.3
			c0.1,0.2,0.1,0.5,0.2,0.7c0,0.1,0.1,0.2,0.1,0.3c0,0.2,0.1,0.3,0.1,0.5c0.1,0.5,0.3,1.1,0.4,1.6c0.1,0.3,0.1,0.6,0.2,1
			c0,0.2,0.1,0.4,0.1,0.6c0,0.2,0.1,0.3,0.1,0.5c0.1,0.9,0.2,1.9,0.2,2.8c0,4.5-1.6,7.6-4.1,9.1l-5.9,3.4c2.5-1.5,4.1-4.6,4.1-9.1
			c0-1.1-0.1-2.1-0.3-3.2c0-0.2-0.1-0.3-0.1-0.5c-0.2-1-0.4-2.1-0.7-3.1c0-0.1-0.1-0.2-0.1-0.3c-0.3-1.1-0.8-2.2-1.2-3.3
			c0,0,0,0,0-0.1c-0.5-1.1-1-2.2-1.6-3.3c0,0,0-0.1-0.1-0.1c-0.6-1-1.3-2-2-3c-0.1-0.1-0.1-0.2-0.2-0.3c-0.7-0.9-1.3-1.7-2.1-2.5
			c-0.2-0.2-0.3-0.3-0.5-0.5c-0.6-0.6-1.2-1.1-1.8-1.7c-0.3-0.2-0.5-0.5-0.8-0.7c-0.9-0.7-1.7-1.3-2.6-1.8l-79.9-46.1
			c-0.6-0.4-1.2-0.6-1.8-0.9C290.6,162.5,290.4,162.4,290.2,162.4z"/>
		<g>
			<path fill="#F54945" d="M292.6,163.5c-7.8-4.5-14.1-0.9-14.2,8.1c0,9,6.3,19.9,14.1,24.4l79.9,46.1c7.8,4.5,14.1,0.9,14.2-8.1
				c0-9-6.3-19.9-14.1-24.4L292.6,163.5z"/>
		</g>
		<g>
			<g>
				<g>
					<polygon fill="#FFFFFF" points="358.3,211.5 356.2,211.7 358.8,216.7 358.8,216.7 355,213.7 355,216.4 358.8,217.9 358.8,218 
						356.2,219.8 358.3,222.5 359.7,219 359.7,219.1 361.1,224.1 363.2,223.9 360.6,219 360.6,218.9 364.4,221.9 364.4,219.1 
						360.7,217.8 360.7,217.7 363.2,215.7 361.1,213.1 359.7,216.6 359.7,216.5 					"/>
				</g>
				<g>
					<polygon fill="#FFFFFF" points="343.4,202.9 341.3,203.1 343.9,208.1 343.9,208.1 340.1,205.1 340.1,207.8 343.9,209.3 
						343.9,209.4 341.3,211.2 343.4,213.9 344.8,210.4 344.8,210.5 346.2,215.5 348.2,215.2 345.7,210.4 345.7,210.3 349.5,213.2 
						349.5,210.5 345.8,209.2 345.7,209.1 348.3,207.1 346.2,204.5 344.8,207.9 344.8,207.9 					"/>
				</g>
				<g>
					<polygon fill="#FFFFFF" points="328.5,194.3 326.4,194.5 329,199.5 328.9,199.5 325.2,196.5 325.2,199.2 329,200.7 329,200.8 
						326.4,202.6 328.5,205.3 329.9,201.8 329.9,201.9 331.3,206.9 333.3,206.6 330.8,201.7 330.8,201.7 334.5,204.6 334.5,201.9 
						330.9,200.6 330.8,200.5 333.4,198.5 331.3,195.9 329.9,199.3 329.9,199.3 					"/>
				</g>
				<g>
					<polygon fill="#FFFFFF" points="313.6,185.7 311.5,185.9 314.1,190.8 314,190.9 310.3,187.9 310.3,190.6 314.1,192.1 
						314.1,192.2 311.5,194 313.6,196.7 315,193.2 315,193.3 316.4,198.3 318.4,198 315.9,193.1 315.9,193.1 319.6,196 319.7,193.3 
						315.9,192 315.9,191.9 318.5,189.9 316.3,187.3 315,190.7 314.9,190.7 					"/>
				</g>
				<g>
					<polygon fill="#FFFFFF" points="298.7,177.1 296.6,177.3 299.2,182.2 299.1,182.3 295.4,179.3 295.3,182 299.2,183.4 
						299.2,183.6 296.6,185.4 298.7,188.1 300.1,184.6 300.1,184.7 301.5,189.7 303.5,189.4 301,184.5 301,184.5 304.7,187.4 
						304.7,184.7 301,183.4 301,183.3 303.5,181.3 301.4,178.7 300.1,182.1 300,182.1 					"/>
				</g>
			</g>
		</g>
	</g>
	<g>
		<g enable-background="new    ">
			<g>
				<polygon fill="#E92E2D" points="198.4,106 202.2,103.8 211.1,97.5 207.3,99.7 				"/>
			</g>
			<g>
				<polygon fill="#E92E2D" points="222.6,112.8 226.3,110.6 216.6,93.6 212.9,95.8 				"/>
			</g>
			<g>
				<polygon fill="#992E2B" points="197.8,69.2 201.5,67 195.6,70.3 191.8,72.4 				"/>
			</g>
			<g>
				<polygon fill="#E92E2D" points="207.1,85.5 210.8,83.3 201.5,67 197.8,69.2 				"/>
			</g>
			<g>
				<polygon fill="#E92E2D" points="212.9,95.8 216.6,93.6 225.9,87 222.2,89.2 				"/>
			</g>
			<g>
				<polygon fill="#E92E2D" points="222.2,89.2 225.9,87 219.7,77 216,79.2 				"/>
			</g>
			<g>
				<polygon fill="#F54945" points="216,79.2 207.1,85.5 197.8,69.2 191.8,72.4 201.5,89.5 192.2,96.1 198.4,106 207.3,99.7 
					216.6,116.1 222.6,112.8 212.9,95.8 222.2,89.2 				"/>
			</g>
		</g>
	</g>
</g>
</svg>
